<?xml version="1.0" standalone="no"?>
<!DOCTYPE svg PUBLIC "-//W3C//DTD SVG 20010904//EN"
 "http://www.w3.org/TR/2001/REC-SVG-20010904/DTD/svg10.dtd">
<svg version="1.0" xmlns="http://www.w3.org/2000/svg"
 width="256.000000pt" height="256.000000pt" viewBox="0 0 256.000000 256.000000"
 preserveAspectRatio="xMidYMid meet">
<metadata>
Created by potrace 1.14, written by Peter Selinger 2001-2017
</metadata>
<g transform="translate(0.000000,256.000000) scale(0.100000,-0.100000)"
fill="#000000" stroke="none">
<path d="M625 2199 c-121 -6 -139 -12 -164 -53 -18 -29 -20 -51 -20 -260 0
-193 2 -234 16 -264 21 -44 63 -62 146 -62 l63 0 78 -80 c44 -44 87 -80 97
-80 27 0 39 31 39 99 l0 61 98 0 c230 1 266 4 294 25 49 36 49 39 48 353 -1
255 -7 261 -246 261 -82 0 -165 1 -184 1 -133 5 -176 4 -265 -1z"/>
<path d="M1475 2140 c-17 -18 -17 -21 3 -51 l20 -32 -21 -28 c-19 -27 -20 -30
-3 -48 20 -22 38 -22 65 3 19 17 21 17 41 -2 22 -20 31 -21 62 -8 20 9 16 41
-8 67 -16 18 -16 20 2 42 20 22 22 66 3 68 -5 1 -15 2 -21 3 -7 1 -22 -6 -33
-15 -20 -18 -22 -18 -50 1 -37 24 -38 24 -60 0z"/>
<path d="M2176 1905 c-20 -21 -20 -39 0 -59 22 -22 41 -20 59 8 15 22 12 56
-5 56 -5 0 -15 3 -23 6 -8 3 -22 -2 -31 -11z"/>
<path d="M1699 1686 c-2 -2 -29 -6 -59 -10 -30 -3 -55 -6 -56 -6 -1 0 -10 -8
-20 -18 -36 -33 -45 -62 -45 -142 l0 -78 -32 10 c-52 16 -303 18 -392 3 -82
-14 -156 -33 -210 -54 -69 -27 -171 -76 -177 -86 -4 -5 -8 -7 -8 -3 0 7 -69
-38 -135 -88 -40 -30 -130 -117 -177 -171 -55 -64 -177 -263 -161 -263 3 0 0
-6 -6 -14 -35 -42 -88 -250 -97 -381 -8 -116 16 -155 66 -105 20 20 33 20
1095 20 1064 0 1074 0 1085 -20 6 -11 19 -20 30 -20 33 0 43 35 36 127 -8 109
-20 167 -59 283 -42 127 -84 206 -184 349 l-17 24 32 -5 c18 -2 32 -2 32 2 0
4 14 4 32 2 42 -6 93 22 112 63 12 24 16 68 16 171 0 77 1 146 1 154 2 80 -5
160 -16 185 -17 40 -59 62 -120 63 -149 1 -181 2 -195 1 -21 -1 -245 0 -304 1
-28 1 -53 3 -56 5 -4 3 -9 3 -11 1z"/>
</g>
</svg>
